<svg width="233" height="37" viewBox="0 0 233 37" fill="none" xmlns="http://www.w3.org/2000/svg">
<path d="M0 7.13778V0H30.7351V7.13778H19.7088V36.3636H11.044V7.13778H0Z" fill="#51BA55"/>
<path d="M35.0275 0H45.9118L55.1447 22.5142H55.5708L64.8038 0H75.688V36.3636H67.1298V14.027H66.8279L58.0922 36.1328H52.6234L43.8876 13.9027H43.5858V36.3636H35.0275V0Z" fill="#51BA55"/>
<path d="M112.118 0V36.3636H104.661L90.19 15.3764H89.9592V36.3636H81.1701V0H88.734L103.045 20.9517H103.347V0H112.118Z" fill="#51BA55"/>
<path d="M116.455 7.13778V0H147.19V7.13778H136.164V36.3636H127.499V7.13778H116.455Z" fill="#51BA55"/>
<path d="M160.055 36.3636H150.609L162.879 0H174.58L186.849 36.3636H177.403L168.862 9.16193H168.578L160.055 36.3636ZM158.795 22.0526H178.539V28.7287H158.795V22.0526Z" fill="#C0C0C0"/>
<path d="M190.764 36.3636V0H205.785C208.508 0 210.857 0.532671 212.834 1.59801C214.823 2.65151 216.356 4.12524 217.433 6.01918C218.51 7.90128 219.049 10.0911 219.049 12.5888C219.049 15.0982 218.498 17.294 217.397 19.1761C216.308 21.0464 214.752 22.4964 212.728 23.5263C210.703 24.5561 208.301 25.071 205.519 25.071H196.25V18.1463H203.885C205.211 18.1463 206.318 17.9155 207.206 17.4538C208.105 16.9922 208.786 16.3471 209.248 15.5185C209.709 14.678 209.94 13.7015 209.94 12.5888C209.94 11.4643 209.709 10.4936 209.248 9.67685C208.786 8.84825 208.105 8.20904 207.206 7.75923C206.306 7.30942 205.199 7.08452 203.885 7.08452H199.553V36.3636H190.764Z" fill="#C0C0C0"/>
<path d="M232.17 0V36.3636H223.381V0H232.17Z" fill="#C0C0C0"/>
</svg>
